<svg xmlns="http://www.w3.org/2000/svg" width="37" height="37" fill="none" viewBox="0 0 37 37">
    <mask id="a" width="37" height="37" x="0" y="0" maskUnits="userSpaceOnUse">
        <path fill="#fff" d="M0 0h37v37H0V0z"/>
    </mask>
    <g mask="url(#a)">
        <path fill="#fff" d="M18.5 0C8.3 0 0 8.3 0 18.5S8.3 37 18.5 37 37 28.7 37 18.5 28.702 0 18.5 0zm8.253 14.266c.008.183.013.368.013.553 0 5.627-4.282 12.113-12.116 12.113-2.405 0-4.644-.703-6.527-1.912a8.546 8.546 0 0 0 6.304-1.763 4.262 4.262 0 0 1-3.978-2.957 4.29 4.29 0 0 0 1.923-.072 4.259 4.259 0 0 1-3.416-4.175l.001-.054c.574.318 1.23.51 1.928.532a4.255 4.255 0 0 1-1.894-3.543c0-.781.21-1.513.576-2.142a12.09 12.09 0 0 0 8.776 4.45 4.254 4.254 0 0 1-.109-.97 4.258 4.258 0 0 1 7.365-2.914 8.5 8.5 0 0 0 2.705-1.034 4.277 4.277 0 0 1-1.874 2.357 8.466 8.466 0 0 0 2.445-.67 8.562 8.562 0 0 1-2.122 2.2z"/>
    </g>
</svg>
