<svg xmlns="http://www.w3.org/2000/svg" width="37" height="37" fill="none" viewBox="0 0 37 37">
    <mask id="a" width="37" height="37" x="0" y="0" maskUnits="userSpaceOnUse">
        <path fill="#fff" d="M0 0h37v37H0V0z"/>
    </mask>
    <g mask="url(#a)">
        <path fill="#fff" d="M18.5 0C8.284 0 0 8.284 0 18.5S8.284 37 18.5 37 37 28.716 37 18.5 28.716 0 18.5 0zm-5.376 27.967H8.62V14.412h4.505v13.555zM10.871 12.56h-.029c-1.512 0-2.49-1.041-2.49-2.342 0-1.33 1.008-2.342 2.55-2.342 1.54 0 2.49 1.012 2.519 2.342 0 1.3-.978 2.342-2.55 2.342zm18.5 15.406h-4.506v-7.252c0-1.822-.652-3.065-2.282-3.065-1.245 0-1.986.838-2.312 1.648-.12.29-.148.694-.148 1.099v7.57h-4.505s.059-12.284 0-13.555h4.505v1.919c.599-.924 1.67-2.237 4.06-2.237 2.965 0 5.187 1.937 5.187 6.1v7.773z"/>
    </g>
</svg>
