<svg xmlns="http://www.w3.org/2000/svg" width="37" height="37" fill="none" viewBox="0 0 37 37">
    <mask id="a" width="37" height="37" x="0" y="0" maskUnits="userSpaceOnUse">
        <path fill="#fff" d="M0 0h37v37H0V0z"/>
    </mask>
    <g mask="url(#a)">
        <path fill="#fff" fill-rule="evenodd" d="M0 18.5C0 8.284 8.284 0 18.5 0S37 8.284 37 18.5 28.716 37 18.5 37 0 28.716 0 18.5zm28.565 6.958c.263-.675.443-1.447.494-2.578.052-1.133.064-1.495.064-4.38s-.012-3.247-.064-4.38c-.051-1.13-.23-1.903-.494-2.578A5.204 5.204 0 0 0 27.34 9.66a5.208 5.208 0 0 0-1.882-1.226c-.675-.262-1.447-.441-2.578-.493-1.133-.052-1.495-.064-4.38-.064s-3.247.012-4.38.064c-1.13.052-1.903.231-2.578.494A5.204 5.204 0 0 0 9.66 9.66a5.204 5.204 0 0 0-1.226 1.882c-.262.675-.442 1.447-.493 2.578-.052 1.133-.064 1.495-.064 4.38s.012 3.247.064 4.38c.052 1.13.232 1.903.494 2.578A5.206 5.206 0 0 0 9.66 27.34c.53.54 1.173.959 1.882 1.225.675.263 1.448.442 2.578.494 1.133.052 1.495.064 4.38.064s3.247-.012 4.38-.064c1.13-.052 1.903-.231 2.578-.494a5.431 5.431 0 0 0 3.107-3.107zm-1.784-13.223a3.291 3.291 0 0 0-.794-1.221 3.289 3.289 0 0 0-1.222-.795c-.374-.146-.937-.319-1.972-.366-1.12-.05-1.457-.062-4.293-.062-2.837 0-3.173.01-4.293.062-1.036.047-1.598.22-1.972.366-.462.17-.88.442-1.221.795-.353.342-.625.76-.795 1.22-.146.375-.319.938-.366 1.973-.051 1.12-.062 1.457-.062 4.293 0 2.837.01 3.173.062 4.293.047 1.036.22 1.598.366 1.972.17.462.441.88.794 1.222.343.353.76.624 1.222.795.374.145.937.318 1.972.365 1.12.051 1.456.062 4.293.062s3.173-.01 4.293-.062c1.035-.047 1.598-.22 1.972-.365a3.518 3.518 0 0 0 2.016-2.017c.146-.374.319-.936.366-1.972.051-1.12.062-1.456.062-4.293 0-2.836-.01-3.172-.062-4.293-.047-1.035-.22-1.598-.366-1.972zM18.5 23.955a5.455 5.455 0 1 1 0-10.91 5.455 5.455 0 0 1 0 10.91zm5.67-9.85a1.275 1.275 0 1 1 0-2.55 1.275 1.275 0 0 1 0 2.55zM22.042 18.5a3.541 3.541 0 1 1-7.082 0 3.541 3.541 0 0 1 7.082 0z" clip-rule="evenodd"/>
    </g>
</svg>
