<svg xmlns="http://www.w3.org/2000/svg" width="37" height="37" fill="none" viewBox="0 0 37 37">
    <mask id="a" width="37" height="37" x="0" y="0" maskUnits="userSpaceOnUse">
        <path fill="#fff" d="M0 0h37v37H0V0z"/>
    </mask>
    <g mask="url(#a)">
        <path fill="#fff" d="M18.419.925C8.249.925 0 9.205 0 19.42c0 8.17 5.278 15.101 12.6 17.549.921.17 1.258-.401 1.258-.891 0-.44-.017-1.603-.026-3.146-5.123 1.117-6.206-2.48-6.206-2.48-.835-2.137-2.044-2.706-2.044-2.706-1.674-1.146.124-1.123.124-1.123 1.85.131 2.82 1.906 2.82 1.906 1.645 2.826 4.314 2.01 5.364 1.536.165-1.195.642-2.01 1.17-2.473-4.09-.467-8.391-2.054-8.391-9.14 0-2.019.718-3.67 1.897-4.964-.191-.467-.822-2.348.18-4.893 0 0 1.547-.497 5.065 1.895 1.47-.41 3.044-.615 4.613-.621 1.563.009 3.14.211 4.612.624 3.516-2.393 5.061-1.895 5.061-1.895 1.004 2.546.373 4.425.184 4.893 1.182 1.294 1.893 2.945 1.893 4.964 0 7.104-4.306 8.668-8.41 9.126.662.57 1.251 1.7 1.251 3.424 0 2.473-.023 4.467-.023 5.073 0 .495.332 1.07 1.267.888A18.495 18.495 0 0 0 36.843 19.42C36.843 9.205 28.594.925 18.419.925z"/>
    </g>
</svg>
